<svg width="512" height="512" viewBox="0 0 512 512" fill="none" xmlns="http://www.w3.org/2000/svg">
  <rect width="512" height="512" rx="120" fill="#0F172A"/>
  <circle cx="256" cy="256" r="164" fill="#184E77"/>
  <circle cx="256" cy="256" r="118" fill="#34A0A4"/>
  <circle cx="256" cy="256" r="44" fill="#F4EFE2"/>
  <path d="M256 76C287.48 76 313 101.52 313 133C313 164.48 287.48 190 256 190C224.52 190 199 164.48 199 133C199 101.52 224.52 76 256 76Z" fill="#F4EFE2"/>
  <path d="M397 228C428.48 228 454 253.52 454 285C454 316.48 428.48 342 397 342C365.52 342 340 316.48 340 285C340 253.52 365.52 228 397 228Z" fill="#F4EFE2"/>
  <path d="M115 228C146.48 228 172 253.52 172 285C172 316.48 146.48 342 115 342C83.5198 342 58 316.48 58 285C58 253.52 83.5198 228 115 228Z" fill="#F4EFE2"/>
  <path d="M256 322C287.48 322 313 347.52 313 379C313 410.48 287.48 436 256 436C224.52 436 199 410.48 199 379C199 347.52 224.52 322 256 322Z" fill="#F4EFE2"/>
</svg>
